<?xml version="1.0"?>
<svg width="231" height="48" xmlns="http://www.w3.org/2000/svg" xmlns:svg="http://www.w3.org/2000/svg">
 <defs>
  <filter color-interpolation-filters="sRGB" filterUnits="userSpaceOnUse" height="29.79" id="filter0_d_3903_56743" width="7.05" x="12.06" y="9.61">
   <feFlood flood-opacity="0" result="BackgroundImageFix"/>
   <feColorMatrix in="SourceAlpha" result="hardAlpha" type="matrix" values="0 0 0 0 0 0 0 0 0 0 0 0 0 0 0 0 0 0 127 0"/>
   <feOffset dy="0.5"/>
   <feGaussianBlur stdDeviation="0.5"/>
   <feComposite in2="hardAlpha" operator="out"/>
   <feColorMatrix type="matrix" values="0 0 0 0 0 0 0 0 0 0 0 0 0 0 0 0 0 0 0.12 0"/>
   <feBlend in2="BackgroundImageFix"/>
   <feBlend in="SourceGraphic" in2="effect1_dropShadow_3903_56743"/>
  </filter>
  <filter color-interpolation-filters="sRGB" filterUnits="userSpaceOnUse" height="19.68" id="filter1_d_3903_56743" width="7.05" x="21.54" y="19.71">
   <feFlood flood-opacity="0" result="BackgroundImageFix"/>
   <feColorMatrix in="SourceAlpha" result="hardAlpha" type="matrix" values="0 0 0 0 0 0 0 0 0 0 0 0 0 0 0 0 0 0 127 0"/>
   <feOffset dy="0.5"/>
   <feGaussianBlur stdDeviation="0.5"/>
   <feComposite in2="hardAlpha" operator="out"/>
   <feColorMatrix type="matrix" values="0 0 0 0 0 0 0 0 0 0 0 0 0 0 0 0 0 0 0.12 0"/>
   <feBlend in2="BackgroundImageFix"/>
   <feBlend in="SourceGraphic" in2="effect1_dropShadow_3903_56743"/>
  </filter>
  <filter color-interpolation-filters="sRGB" filterUnits="userSpaceOnUse" height="26" id="filter2_d_3903_56743" width="7.05" x="31.01" y="13.39">
   <feFlood flood-opacity="0" result="BackgroundImageFix"/>
   <feColorMatrix in="SourceAlpha" result="hardAlpha" type="matrix" values="0 0 0 0 0 0 0 0 0 0 0 0 0 0 0 0 0 0 127 0"/>
   <feOffset dy="0.5"/>
   <feGaussianBlur stdDeviation="0.5"/>
   <feComposite in2="hardAlpha" operator="out"/>
   <feColorMatrix type="matrix" values="0 0 0 0 0 0 0 0 0 0 0 0 0 0 0 0 0 0 0.12 0"/>
   <feBlend in2="BackgroundImageFix"/>
   <feBlend in="SourceGraphic" in2="effect1_dropShadow_3903_56743"/>
  </filter>
 </defs>
 <g class="layer">
  <title>Layer 1</title>
  <path d="m0.43,12.63c0,-6.97 5.65,-12.63 12.63,-12.63l22.73,0c6.98,0 12.64,5.66 12.64,12.63l0,22.74c0,6.97 -5.66,12.63 -12.64,12.63l-22.73,0c-6.98,0 -12.63,-5.66 -12.63,-12.63l0,-22.74z" fill="#465FFF" id="svg_1"/>
  <g filter="url(#filter0_d_3903_56743)" id="svg_2">
   <path d="m13.06,12.63c0,-1.39 1.13,-2.52 2.53,-2.52c1.39,0 2.52,1.13 2.52,2.52l0,22.74c0,1.39 -1.13,2.53 -2.52,2.53c-1.4,0 -2.53,-1.14 -2.53,-2.53l0,-22.74z" fill="white" id="svg_3"/>
  </g>
  <g filter="url(#filter1_d_3903_56743)" id="svg_4">
   <path d="m22.54,22.74c0,-1.4 1.13,-2.53 2.53,-2.53c1.39,0 2.52,1.13 2.52,2.53l0,12.63c0,1.39 -1.13,2.52 -2.52,2.52c-1.4,0 -2.53,-1.13 -2.53,-2.52l0,-12.63z" fill="white" fill-opacity="0.9" id="svg_5"/>
  </g>
  <g filter="url(#filter2_d_3903_56743)" id="svg_6">
   <path d="m32.01,16.42c0,-1.4 1.13,-2.53 2.52,-2.53c1.4,0 2.53,1.13 2.53,2.53l0,18.95c0,1.39 -1.13,2.52 -2.53,2.52c-1.39,0 -2.52,-1.13 -2.52,-2.52l0,-18.95z" fill="white" fill-opacity="0.7" id="svg_7"/>
  </g>
  <text fill="#3f3f3f" font-family="Times" font-size="30" id="svg_17" letter-spacing="3" stroke-width="0" style="cursor: move;" text-anchor="middle" transform="matrix(0.981763 0 0 1 4.07144 0)" x="139.98" xml:space="preserve" y="35">Wednesday</text>
 </g>
</svg>